<svg width="98" height="98" viewBox="0 0 98 98" fill="none" xmlns="http://www.w3.org/2000/svg">
<circle cx="49" cy="49" r="49" fill="white"/>
<path d="M32.9387 56.7446L27.7623 76.0631" stroke="#685C4D"/>
<path d="M32.592 77.3572L21.9669 74.5102" stroke="#685C4D"/>
<path d="M35.5901 21.7379L48.1472 25.1025L41.0296 51.6655C40.1005 55.133 36.5363 57.1908 33.0688 56.2617C29.6013 55.3325 27.5435 51.7683 28.4726 48.3008L35.5901 21.7379Z" stroke="#685C4D"/>
<path d="M45.0025 37.0881C44.4209 36.8434 42.5241 36.9018 39.5901 39.093C36.6562 41.2843 32.66 39.0695 30.8493 37.6005" stroke="#685C4D"/>
<path d="M65.8206 56.6194L70.9969 75.9379" stroke="#685C4D"/>
<path d="M66.1675 77.2319L76.7927 74.3849" stroke="#685C4D"/>
<path d="M63.1699 21.6126L50.6128 24.9773L57.7304 51.5402C58.6595 55.0078 62.2237 57.0655 65.6912 56.1364C69.1587 55.2073 71.2165 51.6431 70.2874 48.1756L63.1699 21.6126Z" stroke="#685C4D"/>
<path d="M53.7751 36.8176C54.3616 36.5847 56.2568 36.6812 59.1461 38.9311C62.0353 41.1809 66.0753 39.047 67.9151 37.6147" stroke="#685C4D"/>
</svg>
